<svg xmlns="http://www.w3.org/2000/svg" width="390" height="844" viewBox="0 0 390 844" fill="none">
<g clip-path="url(#clip0_63_715)">
<rect width="390" height="844" fill="white" />
<ellipse cx="139.5" cy="432" rx="229.5" ry="214" fill="url(#paint0_radial_63_715)" fill-opacity="0.6" />
<ellipse cx="268.5" cy="385" rx="229.5" ry="214" fill="url(#paint1_radial_63_715)" fill-opacity="0.6" />
<mask id="path-3-outside-1_63_715" maskUnits="userSpaceOnUse" x="93.3539" y="379.529" width="221.742" height="73.0435" fill="black">
<rect fill="white" x="93.3539" y="379.529" width="221.742" height="73.0435" />
<path d="M122.504 445.319C118.701 445.621 115.2 445.044 112.001 443.588C108.799 442.095 106.209 439.886 104.231 436.959C102.252 434.032 101.111 430.648 100.807 426.809C100.503 422.969 101.097 419.448 102.589 416.246C104.119 413.041 106.349 410.468 109.278 408.527C112.205 406.549 115.57 405.409 119.373 405.108C122.659 404.847 125.68 405.221 128.435 406.229C131.189 407.237 133.545 408.833 135.502 411.019L129.773 417.492C127.133 414.654 124.059 413.374 120.552 413.652C118.447 413.819 116.602 414.448 115.017 415.54C113.469 416.629 112.303 418.096 111.52 419.941C110.735 421.749 110.431 423.78 110.61 426.032C110.788 428.284 111.409 430.26 112.473 431.959C113.533 433.621 114.914 434.868 116.614 435.699C118.352 436.527 120.273 436.858 122.377 436.691C125.959 436.408 128.791 434.641 130.874 431.393L137.551 436.882C135.963 439.349 133.89 441.315 131.331 442.781C128.769 444.21 125.826 445.056 122.504 445.319ZM156.743 411.231C160.287 410.95 163.238 411.849 165.595 413.929C167.949 415.972 169.301 419.208 169.652 423.639L171.008 440.752L161.759 441.485L160.526 425.922C160.184 421.602 158.296 419.579 154.862 419.851C153.016 419.997 151.589 420.742 150.581 422.085C149.57 423.391 149.162 425.281 149.358 427.755L150.517 442.375L141.213 443.113L137.957 402.019L147.261 401.282L148.34 414.906C149.369 413.821 150.603 412.98 152.042 412.383C153.477 411.75 155.045 411.365 156.743 411.231ZM204.045 425.874L183.111 427.532C183.64 429.051 184.586 430.202 185.948 430.986C187.308 431.733 188.966 432.028 190.923 431.873C192.326 431.762 193.528 431.463 194.53 430.975C195.565 430.447 196.545 429.682 197.469 428.68L202.785 433.887C200.345 437.313 196.503 439.233 191.26 439.649C187.974 439.909 185.023 439.474 182.407 438.344C179.791 437.214 177.708 435.54 176.158 433.322C174.604 431.067 173.711 428.463 173.477 425.509C173.243 422.556 173.697 419.845 174.838 417.376C176.017 414.905 177.736 412.911 179.993 411.395C182.251 409.878 184.838 409.005 187.755 408.774C190.598 408.548 193.195 408.974 195.547 410.051C197.935 411.125 199.871 412.811 201.353 415.108C202.87 417.366 203.754 420.082 204.005 423.258L204.045 425.874ZM188.39 416.08C186.728 416.211 185.363 416.802 184.295 417.853C183.26 418.864 182.662 420.23 182.502 421.952L195.018 420.96C194.591 419.322 193.786 418.067 192.602 417.195C191.455 416.32 190.051 415.948 188.39 416.08ZM223.235 437.115C220.134 437.361 217.295 436.936 214.719 435.84C212.177 434.704 210.13 433.027 208.58 430.809C207.027 428.554 206.132 425.931 205.895 422.941C205.658 419.95 206.13 417.238 207.312 414.803C208.491 412.332 210.246 410.335 212.577 408.813C214.946 407.288 217.681 406.403 220.782 406.157C223.957 405.905 226.745 406.39 229.145 407.612C231.546 408.834 233.345 410.679 234.544 413.147L227.66 417.705C226.117 415.115 224.017 413.926 221.359 414.136C219.439 414.288 217.905 415.097 216.758 416.563C215.645 417.988 215.181 419.864 215.365 422.19C215.549 424.516 216.303 426.296 217.627 427.528C218.988 428.758 220.628 429.297 222.548 429.145C225.243 428.931 227.13 427.426 228.209 424.628L235.729 428.1C234.931 430.69 233.424 432.779 231.209 434.366C229.031 435.95 226.373 436.867 223.235 437.115ZM248.059 427.179L248.647 434.6L239.343 435.338L236.087 394.244L245.391 393.507L247.146 415.66L257.183 403.774L268.204 402.901L257.421 416.629L271.575 432.784L260.332 433.675L251.101 423.372L248.059 427.179ZM275.703 398.629C274.004 398.763 272.58 398.375 271.431 397.463C270.318 396.548 269.702 395.333 269.582 393.819C269.462 392.306 269.879 391.009 270.834 389.931C271.823 388.812 273.166 388.185 274.865 388.051C276.526 387.919 277.912 388.292 279.022 389.17C280.168 390.046 280.8 391.222 280.917 392.698C281.046 394.323 280.634 395.693 279.683 396.809C278.728 397.888 277.401 398.494 275.703 398.629ZM280.589 401.92L282.963 431.881L273.659 432.619L271.285 402.657L280.589 401.92ZM307.849 428.516C307.05 429.211 306.053 429.755 304.858 430.147C303.703 430.573 302.442 430.84 301.076 430.948C297.531 431.229 294.706 430.505 292.6 428.777C290.528 427.009 289.346 424.28 289.053 420.587L288.185 409.622L283.975 409.955L283.383 402.479L287.592 402.145L287.004 394.724L296.308 393.987L296.896 401.408L303.598 400.877L304.19 408.354L297.489 408.885L298.349 419.739C298.442 420.921 298.791 421.804 299.394 422.387C299.998 422.971 300.798 423.224 301.795 423.145C303.014 423.048 304.038 422.614 304.869 421.842L307.849 428.516Z" />
</mask>
<path d="M122.504 445.319C118.701 445.621 115.2 445.044 112.001 443.588C108.799 442.095 106.209 439.886 104.231 436.959C102.252 434.032 101.111 430.648 100.807 426.809C100.503 422.969 101.097 419.448 102.589 416.246C104.119 413.041 106.349 410.468 109.278 408.527C112.205 406.549 115.57 405.409 119.373 405.108C122.659 404.847 125.68 405.221 128.435 406.229C131.189 407.237 133.545 408.833 135.502 411.019L129.773 417.492C127.133 414.654 124.059 413.374 120.552 413.652C118.447 413.819 116.602 414.448 115.017 415.54C113.469 416.629 112.303 418.096 111.52 419.941C110.735 421.749 110.431 423.78 110.61 426.032C110.788 428.284 111.409 430.26 112.473 431.959C113.533 433.621 114.914 434.868 116.614 435.699C118.352 436.527 120.273 436.858 122.377 436.691C125.959 436.408 128.791 434.641 130.874 431.393L137.551 436.882C135.963 439.349 133.89 441.315 131.331 442.781C128.769 444.21 125.826 445.056 122.504 445.319ZM156.743 411.231C160.287 410.95 163.238 411.849 165.595 413.929C167.949 415.972 169.301 419.208 169.652 423.639L171.008 440.752L161.759 441.485L160.526 425.922C160.184 421.602 158.296 419.579 154.862 419.851C153.016 419.997 151.589 420.742 150.581 422.085C149.57 423.391 149.162 425.281 149.358 427.755L150.517 442.375L141.213 443.113L137.957 402.019L147.261 401.282L148.34 414.906C149.369 413.821 150.603 412.98 152.042 412.383C153.477 411.75 155.045 411.365 156.743 411.231ZM204.045 425.874L183.111 427.532C183.64 429.051 184.586 430.202 185.948 430.986C187.308 431.733 188.966 432.028 190.923 431.873C192.326 431.762 193.528 431.463 194.53 430.975C195.565 430.447 196.545 429.682 197.469 428.68L202.785 433.887C200.345 437.313 196.503 439.233 191.26 439.649C187.974 439.909 185.023 439.474 182.407 438.344C179.791 437.214 177.708 435.54 176.158 433.322C174.604 431.067 173.711 428.463 173.477 425.509C173.243 422.556 173.697 419.845 174.838 417.376C176.017 414.905 177.736 412.911 179.993 411.395C182.251 409.878 184.838 409.005 187.755 408.774C190.598 408.548 193.195 408.974 195.547 410.051C197.935 411.125 199.871 412.811 201.353 415.108C202.87 417.366 203.754 420.082 204.005 423.258L204.045 425.874ZM188.39 416.08C186.728 416.211 185.363 416.802 184.295 417.853C183.26 418.864 182.662 420.23 182.502 421.952L195.018 420.96C194.591 419.322 193.786 418.067 192.602 417.195C191.455 416.32 190.051 415.948 188.39 416.08ZM223.235 437.115C220.134 437.361 217.295 436.936 214.719 435.84C212.177 434.704 210.13 433.027 208.58 430.809C207.027 428.554 206.132 425.931 205.895 422.941C205.658 419.95 206.13 417.238 207.312 414.803C208.491 412.332 210.246 410.335 212.577 408.813C214.946 407.288 217.681 406.403 220.782 406.157C223.957 405.905 226.745 406.39 229.145 407.612C231.546 408.834 233.345 410.679 234.544 413.147L227.66 417.705C226.117 415.115 224.017 413.926 221.359 414.136C219.439 414.288 217.905 415.097 216.758 416.563C215.645 417.988 215.181 419.864 215.365 422.19C215.549 424.516 216.303 426.296 217.627 427.528C218.988 428.758 220.628 429.297 222.548 429.145C225.243 428.931 227.13 427.426 228.209 424.628L235.729 428.1C234.931 430.69 233.424 432.779 231.209 434.366C229.031 435.95 226.373 436.867 223.235 437.115ZM248.059 427.179L248.647 434.6L239.343 435.338L236.087 394.244L245.391 393.507L247.146 415.66L257.183 403.774L268.204 402.901L257.421 416.629L271.575 432.784L260.332 433.675L251.101 423.372L248.059 427.179ZM275.703 398.629C274.004 398.763 272.58 398.375 271.431 397.463C270.318 396.548 269.702 395.333 269.582 393.819C269.462 392.306 269.879 391.009 270.834 389.931C271.823 388.812 273.166 388.185 274.865 388.051C276.526 387.919 277.912 388.292 279.022 389.17C280.168 390.046 280.8 391.222 280.917 392.698C281.046 394.323 280.634 395.693 279.683 396.809C278.728 397.888 277.401 398.494 275.703 398.629ZM280.589 401.92L282.963 431.881L273.659 432.619L271.285 402.657L280.589 401.92ZM307.849 428.516C307.05 429.211 306.053 429.755 304.858 430.147C303.703 430.573 302.442 430.84 301.076 430.948C297.531 431.229 294.706 430.505 292.6 428.777C290.528 427.009 289.346 424.28 289.053 420.587L288.185 409.622L283.975 409.955L283.383 402.479L287.592 402.145L287.004 394.724L296.308 393.987L296.896 401.408L303.598 400.877L304.19 408.354L297.489 408.885L298.349 419.739C298.442 420.921 298.791 421.804 299.394 422.387C299.998 422.971 300.798 423.224 301.795 423.145C303.014 423.048 304.038 422.614 304.869 421.842L307.849 428.516Z" fill="#27D8CC" />
<path d="M112.001 443.588L109.888 448.12L109.909 448.13L109.93 448.139L112.001 443.588ZM104.231 436.959L100.088 439.758L104.231 436.959ZM102.589 416.246L98.077 414.092L98.0672 414.113L98.0576 414.133L102.589 416.246ZM109.278 408.527L112.04 412.695L112.059 412.682L112.078 412.669L109.278 408.527ZM128.435 406.229L126.717 410.924L126.717 410.924L128.435 406.229ZM135.502 411.019L139.246 414.333L142.195 411L139.227 407.684L135.502 411.019ZM129.773 417.492L126.112 420.897L129.865 424.931L133.517 420.805L129.773 417.492ZM115.017 415.54L112.181 411.422L112.161 411.436L112.141 411.45L115.017 415.54ZM111.52 419.941L116.106 421.933L116.115 421.913L116.123 421.893L111.52 419.941ZM112.473 431.959L108.234 434.612L108.246 434.63L108.257 434.648L112.473 431.959ZM116.614 435.699L114.419 440.191L114.44 440.202L114.463 440.212L116.614 435.699ZM130.874 431.393L134.05 427.53L129.703 423.956L126.665 428.694L130.874 431.393ZM137.551 436.882L141.755 439.589L144.164 435.847L140.726 433.02L137.551 436.882ZM131.331 442.781L133.766 447.148L133.791 447.134L133.816 447.119L131.331 442.781ZM122.504 445.319L122.109 440.335C119.077 440.575 116.434 440.112 114.071 439.037L112.001 443.588L109.93 448.139C113.966 449.975 118.324 450.666 122.898 450.304L122.504 445.319ZM112.001 443.588L114.113 439.056C111.732 437.946 109.844 436.335 108.373 434.159L104.231 436.959L100.088 439.758C102.573 443.436 105.865 446.245 109.888 448.12L112.001 443.588ZM104.231 436.959L108.373 434.159C106.922 432.011 106.034 429.473 105.791 426.414L100.807 426.809L95.8227 427.203C96.1888 431.824 97.5833 436.052 100.088 439.758L104.231 436.959ZM100.807 426.809L105.791 426.414C105.549 423.355 106.026 420.708 107.121 418.358L102.589 416.246L98.0576 414.133C96.1678 418.188 95.4566 422.583 95.8227 427.203L100.807 426.809ZM102.589 416.246L107.102 418.399C108.245 416.003 109.874 414.13 112.04 412.695L109.278 408.527L106.517 404.359C102.823 406.806 99.9924 410.079 98.077 414.092L102.589 416.246ZM109.278 408.527L112.078 412.669C114.233 411.213 116.755 410.331 119.768 410.092L119.373 405.108L118.978 400.123C114.385 400.487 110.178 401.884 106.479 404.384L109.278 408.527ZM119.373 405.108L119.768 410.092C122.426 409.881 124.716 410.193 126.717 410.924L128.435 406.229L130.152 401.533C126.643 400.249 122.892 399.813 118.978 400.123L119.373 405.108ZM128.435 406.229L126.717 410.924C128.701 411.65 130.367 412.78 131.776 414.354L135.502 411.019L139.227 407.684C136.723 404.887 133.678 402.823 130.152 401.533L128.435 406.229ZM135.502 411.019L131.758 407.705L126.029 414.178L129.773 417.492L133.517 420.805L139.246 414.333L135.502 411.019ZM129.773 417.492L133.434 414.086C129.874 410.26 125.355 408.256 120.157 408.668L120.552 413.652L120.947 418.637C122.764 418.493 124.392 419.048 126.112 420.897L129.773 417.492ZM120.552 413.652L120.157 408.668C117.264 408.897 114.559 409.785 112.181 411.422L115.017 415.54L117.853 419.658C118.646 419.112 119.631 418.741 120.947 418.637L120.552 413.652ZM115.017 415.54L112.141 411.45C109.783 413.108 108.042 415.336 106.917 417.989L111.52 419.941L116.123 421.893C116.564 420.855 117.154 420.149 117.893 419.63L115.017 415.54ZM111.52 419.941L106.934 417.949C105.778 420.612 105.392 423.478 105.625 426.427L110.61 426.032L115.594 425.637C115.471 424.081 115.692 422.887 116.106 421.933L111.52 419.941ZM110.61 426.032L105.625 426.427C105.859 429.378 106.692 432.148 108.234 434.612L112.473 431.959L116.711 429.306C116.126 428.371 115.717 427.191 115.594 425.637L110.61 426.032ZM112.473 431.959L108.257 434.648C109.791 437.052 111.857 438.939 114.419 440.191L116.614 435.699L118.81 431.207C117.971 430.797 117.275 430.19 116.688 429.269L112.473 431.959ZM116.614 435.699L114.463 440.212C117.068 441.454 119.879 441.905 122.772 441.676L122.377 436.691L121.982 431.707C120.666 431.811 119.635 431.6 118.766 431.186L116.614 435.699ZM122.377 436.691L122.772 441.676C128.042 441.258 132.229 438.543 135.083 434.091L130.874 431.393L126.665 428.694C125.353 430.739 123.875 431.557 121.982 431.707L122.377 436.691ZM130.874 431.393L127.699 435.255L134.375 440.744L137.551 436.882L140.726 433.02L134.05 427.53L130.874 431.393ZM137.551 436.882L133.347 434.176C132.195 435.965 130.713 437.373 128.845 438.442L131.331 442.781L133.816 447.119C137.067 445.257 139.731 442.733 141.755 439.589L137.551 436.882ZM131.331 442.781L128.895 438.414C127.041 439.448 124.813 440.121 122.109 440.335L122.504 445.319L122.898 450.304C126.84 449.991 130.496 448.972 133.766 447.148L131.331 442.781ZM165.595 413.929L162.287 417.678L162.302 417.692L162.318 417.705L165.595 413.929ZM171.008 440.752L171.403 445.736L176.387 445.341L175.992 440.357L171.008 440.752ZM161.759 441.485L156.775 441.88L157.17 446.864L162.154 446.469L161.759 441.485ZM150.581 422.085L154.535 425.145L154.558 425.116L154.58 425.086L150.581 422.085ZM150.517 442.375L150.912 447.36L155.896 446.965L155.501 441.98L150.517 442.375ZM141.213 443.113L136.228 443.507L136.623 448.492L141.608 448.097L141.213 443.113ZM137.957 402.019L137.562 397.035L132.577 397.43L132.972 402.414L137.957 402.019ZM147.261 401.282L152.245 400.887L151.85 395.903L146.866 396.298L147.261 401.282ZM148.34 414.906L143.356 415.301L144.243 426.493L151.968 418.347L148.34 414.906ZM152.042 412.383L153.958 417.002L154.01 416.98L154.061 416.958L152.042 412.383ZM156.743 411.231L157.138 416.215C159.526 416.026 161.083 416.616 162.287 417.678L165.595 413.929L168.903 410.18C165.393 407.083 161.049 405.874 156.348 406.246L156.743 411.231ZM165.595 413.929L162.318 417.705C163.325 418.58 164.376 420.351 164.668 424.034L169.652 423.639L174.637 423.244C174.226 418.066 172.572 413.364 168.872 410.153L165.595 413.929ZM169.652 423.639L164.668 424.034L166.024 441.147L171.008 440.752L175.992 440.357L174.637 423.244L169.652 423.639ZM171.008 440.752L170.613 435.767L161.364 436.5L161.759 441.485L162.154 446.469L171.403 445.736L171.008 440.752ZM161.759 441.485L166.744 441.09L165.511 425.527L160.526 425.922L155.542 426.317L156.775 441.88L161.759 441.485ZM160.526 425.922L165.511 425.527C165.298 422.84 164.553 419.945 162.51 417.754C160.275 415.359 157.296 414.642 154.467 414.866L154.862 419.851L155.257 424.835C155.601 424.808 155.677 424.857 155.584 424.826C155.461 424.786 155.307 424.692 155.197 424.575C155.109 424.48 155.165 424.493 155.263 424.771C155.364 425.059 155.481 425.551 155.542 426.317L160.526 425.922ZM154.862 419.851L154.467 414.866C151.356 415.113 148.546 416.467 146.582 419.083L150.581 422.085L154.58 425.086C154.656 424.985 154.697 424.964 154.721 424.952C154.755 424.934 154.904 424.863 155.257 424.835L154.862 419.851ZM150.581 422.085L146.627 419.024C144.55 421.707 144.128 425.042 144.374 428.149L149.358 427.755L154.343 427.36C154.197 425.519 154.59 425.074 154.535 425.145L150.581 422.085ZM149.358 427.755L144.374 428.149L145.532 442.77L150.517 442.375L155.501 441.98L154.343 427.36L149.358 427.755ZM150.517 442.375L150.122 437.391L140.818 438.128L141.213 443.113L141.608 448.097L150.912 447.36L150.517 442.375ZM141.213 443.113L146.197 442.718L142.941 401.624L137.957 402.019L132.972 402.414L136.228 443.507L141.213 443.113ZM137.957 402.019L138.352 407.003L147.656 406.266L147.261 401.282L146.866 396.298L137.562 397.035L137.957 402.019ZM147.261 401.282L142.277 401.677L143.356 415.301L148.34 414.906L153.325 414.511L152.245 400.887L147.261 401.282ZM148.34 414.906L151.968 418.347C152.495 417.791 153.138 417.342 153.958 417.002L152.042 412.383L150.125 407.765C148.068 408.619 146.243 409.851 144.712 411.465L148.34 414.906ZM152.042 412.383L154.061 416.958C154.94 416.569 155.952 416.309 157.138 416.215L156.743 411.231L156.348 406.246C154.137 406.422 152.015 406.93 150.022 407.809L152.042 412.383ZM204.045 425.874L204.44 430.858L209.117 430.488L209.045 425.797L204.045 425.874ZM183.111 427.532L182.716 422.548L176.258 423.06L178.389 429.177L183.111 427.532ZM185.948 430.986L183.455 435.32L183.498 435.344L183.541 435.368L185.948 430.986ZM194.53 430.975L196.72 435.469L196.76 435.45L196.8 435.429L194.53 430.975ZM197.469 428.68L200.967 425.108L197.286 421.502L193.792 425.291L197.469 428.68ZM202.785 433.887L206.858 436.788L209.338 433.307L206.284 430.315L202.785 433.887ZM182.407 438.344L184.39 433.754L182.407 438.344ZM176.158 433.322L172.04 436.158L172.05 436.173L172.06 436.187L176.158 433.322ZM174.838 417.376L170.326 415.223L170.313 415.25L170.301 415.277L174.838 417.376ZM179.993 411.395L177.205 407.244L177.205 407.244L179.993 411.395ZM195.547 410.051L193.465 414.597L193.481 414.604L193.496 414.611L195.547 410.051ZM201.353 415.108L197.152 417.819L197.177 417.858L197.203 417.896L201.353 415.108ZM204.005 423.258L209.005 423.181L209.002 423.022L208.99 422.863L204.005 423.258ZM184.295 417.853L187.789 421.429L187.795 421.424L187.8 421.418L184.295 417.853ZM182.502 421.952L177.523 421.487L176.97 427.406L182.897 426.936L182.502 421.952ZM195.018 420.96L195.413 425.945L201.362 425.473L199.856 419.699L195.018 420.96ZM192.602 417.195L189.569 421.17L189.602 421.195L189.636 421.22L192.602 417.195ZM204.045 425.874L203.65 420.889L182.716 422.548L183.111 427.532L183.506 432.517L204.44 430.858L204.045 425.874ZM183.111 427.532L178.389 429.177C179.304 431.802 181.025 433.922 183.455 435.32L185.948 430.986L188.441 426.652C188.147 426.482 187.976 426.3 187.833 425.888L183.111 427.532ZM185.948 430.986L183.541 435.368C185.957 436.695 188.645 437.069 191.318 436.858L190.923 431.873L190.528 426.889C189.286 426.987 188.658 426.77 188.355 426.603L185.948 430.986ZM190.923 431.873L191.318 436.858C193.187 436.71 195.029 436.293 196.72 435.469L194.53 430.975L192.339 426.48C192.027 426.632 191.465 426.815 190.528 426.889L190.923 431.873ZM194.53 430.975L196.8 435.429C198.446 434.59 199.887 433.433 201.145 432.069L197.469 428.68L193.792 425.291C193.202 425.931 192.684 426.303 192.259 426.52L194.53 430.975ZM197.469 428.68L193.97 432.252L199.287 437.459L202.785 433.887L206.284 430.315L200.967 425.108L197.469 428.68ZM202.785 433.887L198.713 430.986C197.339 432.915 195.036 434.334 190.865 434.664L191.26 439.649L191.655 444.633C197.97 444.133 203.35 441.711 206.858 436.788L202.785 433.887ZM191.26 439.649L190.865 434.664C188.264 434.871 186.148 434.513 184.39 433.754L182.407 438.344L180.424 442.934C183.898 444.435 187.684 444.948 191.655 444.633L191.26 439.649ZM182.407 438.344L184.39 433.754C182.578 432.971 181.246 431.874 180.256 430.457L176.158 433.322L172.06 436.187C174.17 439.206 177.004 441.456 180.424 442.934L182.407 438.344ZM176.158 433.322L180.275 430.485C179.261 429.013 178.632 427.266 178.461 425.114L173.477 425.509L168.492 425.904C168.79 429.66 169.948 433.121 172.04 436.158L176.158 433.322ZM173.477 425.509L178.461 425.114C178.289 422.938 178.627 421.096 179.376 419.476L174.838 417.376L170.301 415.277C168.766 418.593 168.197 422.173 168.492 425.904L173.477 425.509ZM174.838 417.376L179.351 419.529C180.147 417.861 181.272 416.559 182.781 415.546L179.993 411.395L177.205 407.244C174.199 409.264 171.887 411.95 170.326 415.223L174.838 417.376ZM179.993 411.395L182.781 415.546C184.272 414.544 186.022 413.927 188.15 413.758L187.755 408.774L187.36 403.789C183.654 404.083 180.23 405.213 177.205 407.244L179.993 411.395ZM187.755 408.774L188.15 413.758C190.233 413.593 191.966 413.91 193.465 414.597L195.547 410.051L197.629 405.505C194.425 404.038 190.963 403.504 187.36 403.789L187.755 408.774ZM195.547 410.051L193.496 414.611C194.965 415.271 196.169 416.295 197.152 417.819L201.353 415.108L205.555 412.397C203.573 409.326 200.906 406.979 197.597 405.491L195.547 410.051ZM201.353 415.108L197.203 417.896C198.164 419.327 198.825 421.186 199.021 423.653L204.005 423.258L208.99 422.863C208.682 418.979 207.575 415.404 205.504 412.32L201.353 415.108ZM204.005 423.258L199.006 423.334L199.046 425.95L204.045 425.874L209.045 425.797L209.005 423.181L204.005 423.258ZM188.39 416.08L187.995 411.095C185.302 411.309 182.791 412.32 180.789 414.288L184.295 417.853L187.8 421.418C187.936 421.285 188.154 421.114 188.784 421.064L188.39 416.08ZM184.295 417.853L180.8 414.277C178.759 416.271 177.772 418.827 177.523 421.487L182.502 421.952L187.48 422.417C187.553 421.634 187.761 421.457 187.789 421.429L184.295 417.853ZM182.502 421.952L182.897 426.936L195.413 425.945L195.018 420.96L194.623 415.976L182.107 416.968L182.502 421.952ZM195.018 420.96L199.856 419.699C199.186 417.129 197.811 414.822 195.568 413.17L192.602 417.195L189.636 421.22C189.76 421.312 189.996 421.516 190.18 422.222L195.018 420.96ZM192.602 417.195L195.635 413.22C193.358 411.482 190.681 410.882 187.995 411.095L188.39 416.08L188.784 421.064C189.421 421.014 189.552 421.157 189.569 421.17L192.602 417.195ZM214.719 435.84L212.679 440.404L212.72 440.423L212.761 440.44L214.719 435.84ZM208.58 430.809L204.462 433.645L204.472 433.659L204.482 433.673L208.58 430.809ZM207.312 414.803L211.81 416.987L211.817 416.972L211.825 416.956L207.312 414.803ZM212.577 408.813L209.87 404.609L209.857 404.618L209.844 404.627L212.577 408.813ZM229.145 407.612L226.877 412.068V412.068L229.145 407.612ZM234.544 413.147L237.304 417.316L240.953 414.9L239.042 410.963L234.544 413.147ZM227.66 417.705L223.364 420.264L226.048 424.769L230.421 421.874L227.66 417.705ZM216.758 416.563L212.821 413.481L212.817 413.486L216.758 416.563ZM217.627 427.528L214.219 431.188L214.247 431.213L214.274 431.238L217.627 427.528ZM228.209 424.628L230.305 420.089L225.462 417.853L223.543 422.829L228.209 424.628ZM235.729 428.1L240.507 429.573L241.795 425.394L237.825 423.561L235.729 428.1ZM231.209 434.366L228.297 430.302L228.282 430.312L228.268 430.323L231.209 434.366ZM223.235 437.115L222.84 432.131C220.452 432.32 218.431 431.986 216.677 431.239L214.719 435.84L212.761 440.44C216.158 441.886 219.816 442.402 223.63 442.1L223.235 437.115ZM214.719 435.84L216.759 431.275C215.019 430.497 213.694 429.397 212.678 427.944L208.58 430.809L204.482 433.673C206.567 436.656 209.334 438.91 212.679 440.404L214.719 435.84ZM208.58 430.809L212.697 427.972C211.689 426.509 211.053 424.747 210.879 422.546L205.895 422.941L200.91 423.336C201.21 427.116 202.364 430.599 204.462 433.645L208.58 430.809ZM205.895 422.941L210.879 422.546C210.704 420.344 211.058 418.536 211.81 416.987L207.312 414.803L202.814 412.62C201.202 415.94 200.611 419.556 200.91 423.336L205.895 422.941ZM207.312 414.803L211.825 416.956C212.601 415.328 213.734 414.029 215.311 413L212.577 408.813L209.844 404.627C206.758 406.642 204.38 409.336 202.799 412.651L207.312 414.803ZM212.577 408.813L215.284 413.017C216.888 411.984 218.811 411.329 221.177 411.141L220.782 406.157L220.387 401.172C216.55 401.476 213.003 402.592 209.87 404.609L212.577 408.813ZM220.782 406.157L221.177 411.141C223.603 410.949 225.439 411.336 226.877 412.068L229.145 407.612L231.413 403.156C228.052 401.445 224.312 400.862 220.387 401.172L220.782 406.157ZM229.145 407.612L226.877 412.068C228.287 412.785 229.314 413.823 230.046 415.331L234.544 413.147L239.042 410.963C237.377 407.535 234.804 404.882 231.413 403.156L229.145 407.612ZM234.544 413.147L231.783 408.978L224.9 413.536L227.66 417.705L230.421 421.874L237.304 417.316L234.544 413.147ZM227.66 417.705L231.956 415.146C230.849 413.289 229.364 411.637 227.392 410.52C225.383 409.382 223.179 408.976 220.964 409.152L221.359 414.136L221.753 419.121C222.196 419.086 222.372 419.169 222.464 419.221C222.592 419.294 222.928 419.532 223.364 420.264L227.66 417.705ZM221.359 414.136L220.964 409.152C217.704 409.41 214.864 410.871 212.821 413.481L216.758 416.563L220.695 419.645C220.947 419.324 221.174 419.167 221.753 419.121L221.359 414.136ZM216.758 416.563L212.817 413.486C210.731 416.157 210.127 419.385 210.38 422.585L215.365 422.19L220.349 421.795C220.234 420.343 220.559 419.82 220.699 419.64L216.758 416.563ZM215.365 422.19L210.38 422.585C210.634 425.785 211.739 428.878 214.219 431.188L217.627 427.528L221.034 423.869C220.867 423.714 220.464 423.248 220.349 421.795L215.365 422.19ZM217.627 427.528L214.274 431.238C216.712 433.441 219.729 434.384 222.943 434.129L222.548 429.145L222.153 424.16C221.527 424.21 221.263 424.076 220.979 423.819L217.627 427.528ZM222.548 429.145L222.943 434.129C225.161 433.953 227.287 433.212 229.103 431.764C230.889 430.338 232.092 428.455 232.874 426.427L228.209 424.628L223.543 422.829C223.247 423.599 222.966 423.867 222.866 423.947C222.794 424.004 222.629 424.123 222.153 424.16L222.548 429.145ZM228.209 424.628L226.113 429.167L233.632 432.64L235.729 428.1L237.825 423.561L230.305 420.089L228.209 424.628ZM235.729 428.1L230.95 426.628C230.476 428.167 229.629 429.347 228.297 430.302L231.209 434.366L234.122 438.43C237.22 436.21 239.385 433.213 240.507 429.573L235.729 428.1ZM231.209 434.366L228.268 430.323C226.954 431.278 225.217 431.943 222.84 432.131L223.235 437.115L223.63 442.1C227.53 441.791 231.109 440.622 234.151 438.409L231.209 434.366ZM248.059 427.179L244.152 424.058L242.918 425.603L243.074 427.574L248.059 427.179ZM248.647 434.6L249.042 439.585L254.026 439.19L253.631 434.205L248.647 434.6ZM239.343 435.338L234.358 435.733L234.753 440.717L239.737 440.322L239.343 435.338ZM236.087 394.244L235.692 389.26L230.707 389.655L231.102 394.639L236.087 394.244ZM245.391 393.507L250.375 393.112L249.98 388.128L244.996 388.523L245.391 393.507ZM247.146 415.66L242.162 416.055L243.122 428.175L250.966 418.886L247.146 415.66ZM257.183 403.774L256.788 398.79L254.709 398.955L253.363 400.548L257.183 403.774ZM268.204 402.901L272.136 405.99L279.185 397.015L267.809 397.917L268.204 402.901ZM257.421 416.629L253.489 413.54L250.927 416.803L253.661 419.924L257.421 416.629ZM271.575 432.784L271.97 437.768L281.9 436.981L275.336 429.489L271.575 432.784ZM260.332 433.675L256.608 437.011L258.26 438.854L260.727 438.659L260.332 433.675ZM251.101 423.372L254.825 420.035L250.882 415.635L247.194 420.251L251.101 423.372ZM248.059 427.179L243.074 427.574L243.662 434.995L248.647 434.6L253.631 434.205L253.043 426.784L248.059 427.179ZM248.647 434.6L248.252 429.616L238.948 430.353L239.343 435.338L239.737 440.322L249.042 439.585L248.647 434.6ZM239.343 435.338L244.327 434.943L241.071 393.849L236.087 394.244L231.102 394.639L234.358 435.733L239.343 435.338ZM236.087 394.244L236.482 399.229L245.786 398.491L245.391 393.507L244.996 388.523L235.692 389.26L236.087 394.244ZM245.391 393.507L240.406 393.902L242.162 416.055L247.146 415.66L252.13 415.265L250.375 393.112L245.391 393.507ZM247.146 415.66L250.966 418.886L261.003 407L257.183 403.774L253.363 400.548L243.326 412.434L247.146 415.66ZM257.183 403.774L257.578 408.759L268.599 407.885L268.204 402.901L267.809 397.917L256.788 398.79L257.183 403.774ZM268.204 402.901L264.272 399.813L253.489 413.54L257.421 416.629L261.353 419.717L272.136 405.99L268.204 402.901ZM257.421 416.629L253.661 419.924L267.814 436.079L271.575 432.784L275.336 429.489L261.182 413.334L257.421 416.629ZM271.575 432.784L271.18 427.799L259.937 428.69L260.332 433.675L260.727 438.659L271.97 437.768L271.575 432.784ZM260.332 433.675L264.056 430.338L254.825 420.035L251.101 423.372L247.377 426.708L256.608 437.011L260.332 433.675ZM251.101 423.372L247.194 420.251L244.152 424.058L248.059 427.179L251.965 430.3L255.007 426.492L251.101 423.372ZM271.431 397.463L268.255 401.325L268.289 401.353L268.323 401.38L271.431 397.463ZM270.834 389.931L274.578 393.245L274.58 393.242L270.834 389.931ZM279.022 389.17L275.919 393.092L275.954 393.119L275.988 393.145L279.022 389.17ZM279.683 396.809L283.427 400.123L283.457 400.089L283.486 400.054L279.683 396.809ZM280.589 401.92L285.574 401.525L285.179 396.541L280.194 396.935L280.589 401.92ZM282.963 431.881L283.358 436.866L288.342 436.471L287.947 431.487L282.963 431.881ZM273.659 432.619L268.674 433.014L269.069 437.998L274.054 437.603L273.659 432.619ZM271.285 402.657L270.89 397.673L265.906 398.068L266.301 403.052L271.285 402.657ZM275.703 398.629L275.308 393.644C274.947 393.673 274.754 393.636 274.678 393.615C274.614 393.597 274.58 393.579 274.538 393.545L271.431 397.463L268.323 401.38C270.622 403.203 273.356 403.83 276.098 403.613L275.703 398.629ZM271.431 397.463L274.606 393.601C274.574 393.574 274.565 393.562 274.571 393.568C274.576 393.575 274.585 393.588 274.592 393.603C274.6 393.617 274.598 393.617 274.592 393.596C274.586 393.573 274.573 393.519 274.566 393.425L269.582 393.82L264.597 394.214C264.818 397 266.032 399.497 268.255 401.325L271.431 397.463ZM269.582 393.82L274.566 393.425C274.559 393.33 274.562 393.275 274.565 393.251C274.567 393.229 274.569 393.229 274.564 393.245C274.559 393.26 274.552 393.274 274.548 393.282C274.544 393.289 274.55 393.276 274.578 393.245L270.834 389.931L267.09 386.617C265.182 388.772 264.377 391.429 264.597 394.214L269.582 393.82ZM270.834 389.931L274.58 393.242C274.623 393.194 274.652 393.174 274.697 393.153C274.753 393.127 274.918 393.062 275.26 393.035L274.865 388.051L274.47 383.066C271.677 383.288 269.057 384.391 267.088 386.619L270.834 389.931ZM274.865 388.051L275.26 393.035C275.611 393.007 275.79 393.044 275.85 393.06C275.896 393.072 275.905 393.08 275.919 393.092L279.022 389.17L282.124 385.249C279.852 383.452 277.151 382.854 274.47 383.066L274.865 388.051ZM279.022 389.17L275.988 393.145C276.021 393.17 276.022 393.176 276.008 393.159C276.001 393.151 275.991 393.139 275.981 393.124C275.971 393.109 275.961 393.093 275.951 393.075C275.932 393.039 275.923 393.013 275.921 393.006C275.92 393 275.928 393.026 275.933 393.093L280.917 392.698L285.902 392.304C285.676 389.454 284.365 386.959 282.055 385.196L279.022 389.17ZM280.917 392.698L275.933 393.093C275.955 393.373 275.921 393.491 275.917 393.506C275.914 393.516 275.912 393.519 275.911 393.52C275.911 393.521 275.903 393.535 275.879 393.564L279.683 396.809L283.486 400.054C285.398 397.813 286.122 395.089 285.902 392.304L280.917 392.698ZM279.683 396.809L275.938 393.495C275.93 393.505 275.929 393.509 275.892 393.526C275.841 393.549 275.67 393.616 275.308 393.644L275.703 398.629L276.098 403.613C278.835 403.396 281.46 402.345 283.427 400.123L279.683 396.809ZM280.589 401.92L275.605 402.315L277.979 432.276L282.963 431.881L287.947 431.487L285.574 401.525L280.589 401.92ZM282.963 431.881L282.568 426.897L273.264 427.634L273.659 432.619L274.054 437.603L283.358 436.866L282.963 431.881ZM273.659 432.619L278.643 432.224L276.269 402.262L271.285 402.657L266.301 403.052L268.674 433.014L273.659 432.619ZM271.285 402.657L271.68 407.641L280.984 406.904L280.589 401.92L280.194 396.935L270.89 397.673L271.285 402.657ZM307.849 428.516L311.13 432.29L313.925 429.86L312.415 426.477L307.849 428.516ZM304.858 430.147L303.3 425.396L303.213 425.424L303.128 425.455L304.858 430.147ZM292.6 428.777L289.355 432.581L289.391 432.612L289.429 432.643L292.6 428.777ZM288.185 409.622L293.169 409.227L292.774 404.242L287.79 404.637L288.185 409.622ZM283.975 409.955L278.991 410.35L279.386 415.335L284.37 414.94L283.975 409.955ZM283.383 402.479L282.988 397.494L278.004 397.889L278.399 402.874L283.383 402.479ZM287.592 402.145L287.987 407.13L292.971 406.735L292.577 401.75L287.592 402.145ZM287.004 394.724L286.609 389.74L281.625 390.135L282.02 395.119L287.004 394.724ZM296.308 393.987L301.293 393.592L300.898 388.608L295.913 389.002L296.308 393.987ZM296.896 401.408L291.912 401.803L292.307 406.787L297.291 406.392L296.896 401.408ZM303.598 400.877L308.582 400.482L308.187 395.498L303.203 395.893L303.598 400.877ZM304.19 408.354L304.585 413.338L309.569 412.943L309.174 407.959L304.19 408.354ZM297.489 408.885L297.094 403.9L292.109 404.295L292.504 409.279L297.489 408.885ZM299.394 422.387L295.918 425.981L295.918 425.981L299.394 422.387ZM304.869 421.842L309.434 419.803L306.584 413.423L301.465 418.179L304.869 421.842ZM307.849 428.516L304.569 424.743C304.358 424.927 303.978 425.173 303.3 425.396L304.858 430.147L306.416 434.898C308.128 434.336 309.742 433.496 311.13 432.29L307.849 428.516ZM304.858 430.147L303.128 425.455C302.448 425.706 301.642 425.887 300.681 425.964L301.076 430.948L301.471 435.932C303.242 435.792 304.957 435.439 306.587 434.838L304.858 430.147ZM301.076 430.948L300.681 425.964C298.018 426.175 296.602 425.593 295.772 424.912L292.6 428.777L289.429 432.643C292.811 435.418 297.045 436.283 301.471 435.932L301.076 430.948ZM292.6 428.777L295.845 424.974C295.102 424.339 294.264 423.051 294.038 420.192L289.053 420.587L284.069 420.982C284.428 425.508 285.954 429.68 289.355 432.581L292.6 428.777ZM289.053 420.587L294.038 420.192L293.169 409.227L288.185 409.622L283.2 410.017L284.069 420.982L289.053 420.587ZM288.185 409.622L287.79 404.637L283.581 404.971L283.975 409.955L284.37 414.94L288.579 414.606L288.185 409.622ZM283.975 409.955L288.96 409.56L288.367 402.084L283.383 402.479L278.399 402.874L278.991 410.35L283.975 409.955ZM283.383 402.479L283.778 407.463L287.987 407.13L287.592 402.145L287.197 397.161L282.988 397.494L283.383 402.479ZM287.592 402.145L292.577 401.75L291.989 394.329L287.004 394.724L282.02 395.119L282.608 402.54L287.592 402.145ZM287.004 394.724L287.399 399.708L296.703 398.971L296.308 393.987L295.913 389.002L286.609 389.74L287.004 394.724ZM296.308 393.987L291.324 394.382L291.912 401.803L296.896 401.408L301.881 401.013L301.293 393.592L296.308 393.987ZM296.896 401.408L297.291 406.392L303.992 405.861L303.598 400.877L303.203 395.893L296.501 396.424L296.896 401.408ZM303.598 400.877L298.613 401.272L299.206 408.749L304.19 408.354L309.174 407.959L308.582 400.482L303.598 400.877ZM304.19 408.354L303.795 403.369L297.094 403.9L297.489 408.885L297.884 413.869L304.585 413.338L304.19 408.354ZM297.489 408.885L292.504 409.279L293.364 420.134L298.349 419.739L303.333 419.345L302.473 408.49L297.489 408.885ZM298.349 419.739L293.364 420.134C293.515 422.034 294.137 424.259 295.918 425.981L299.394 422.387L302.871 418.793C303.144 419.058 303.277 419.316 303.331 419.451C303.377 419.569 303.35 419.558 303.333 419.345L298.349 419.739ZM299.394 422.387L295.918 425.981C297.751 427.754 300.062 428.298 302.19 428.129L301.795 423.145L301.4 418.16C301.422 418.158 301.633 418.146 301.951 418.246C302.291 418.353 302.615 418.547 302.871 418.793L299.394 422.387ZM301.795 423.145L302.19 428.129C304.438 427.951 306.55 427.105 308.272 425.505L304.869 421.842L301.465 418.179C301.463 418.182 301.469 418.175 301.484 418.166C301.499 418.156 301.514 418.148 301.526 418.143C301.538 418.138 301.538 418.139 301.521 418.143C301.504 418.147 301.465 418.155 301.4 418.16L301.795 423.145ZM304.869 421.842L300.303 423.881L303.284 430.555L307.849 428.516L312.415 426.477L309.434 419.803L304.869 421.842Z" fill="white" mask="url(#path-3-outside-1_63_715)" />
<path d="M86.7444 411.647C83.9193 402.316 80.5832 397.805 71.7696 393.62C71.2271 393.362 71.1999 392.584 71.7241 392.291C79.8205 387.765 83.4104 383.274 86.7166 374.046C86.9501 373.394 87.8932 373.395 88.1251 374.047C91.254 382.848 94.4178 387.6 103.142 392.328C103.664 392.61 103.657 393.376 103.131 393.65C94.2503 398.265 91.1287 402.996 88.1804 411.673C87.9494 412.352 86.9525 412.334 86.7444 411.647Z" fill="#27D8CC" />
<g opacity="0.5">
<circle cx="291.087" cy="450.667" r="18.6667" fill="#27D8CC" />
</g>
<circle cx="291.087" cy="450.667" r="21.6667" stroke="#27D8CC" stroke-width="6" />
<path d="M279.919 448.984C279.919 454.317 283.919 460.984 291.919 460.984" stroke="white" stroke-width="3.99998" stroke-linecap="round" />
<line x1="306.138" y1="469.864" x2="313.951" y2="478.949" stroke="#27D8CC" stroke-width="10" stroke-linecap="round" />
<rect x="65" y="433.197" width="9" height="14" transform="rotate(-74.4106 65 433.197)" fill="#27D8CC" />
<rect x="74.0952" y="451.967" width="7.4245" height="11.2432" transform="rotate(-116.014 74.0952 451.967)" fill="#FE2E6B" />
</g>
<defs>
<radialGradient id="paint0_radial_63_715" cx="0" cy="0" r="1" gradientUnits="userSpaceOnUse" gradientTransform="translate(139.5 432) rotate(90) scale(214 229.5)">
<stop stop-color="#99ECE7" stop-opacity="0.9" />
<stop offset="1" stop-color="white" stop-opacity="0" />
</radialGradient>
<radialGradient id="paint1_radial_63_715" cx="0" cy="0" r="1" gradientUnits="userSpaceOnUse" gradientTransform="translate(268.5 385) rotate(90) scale(214 229.5)">
<stop stop-color="#99ECE7" stop-opacity="0.9" />
<stop offset="1" stop-color="white" stop-opacity="0" />
</radialGradient>
<clipPath id="clip0_63_715">
<rect width="390" height="844" fill="white" />
</clipPath>
<clipPath id="clip1_63_715">
<rect width="16" height="11.619" fill="white" transform="translate(321.5 18.1906)" />
</clipPath>
<clipPath id="clip2_63_715">
<rect width="24" height="12" fill="white" transform="translate(346 18)" />
</clipPath>
</defs>
</svg>